<?xml version="1.0" encoding="utf-8"?>
<!-- Generator: Adobe Illustrator 26.0.1, SVG Export Plug-In . SVG Version: 6.00 Build 0)  -->
<svg version="1.1" id="Layer_1" xmlns="http://www.w3.org/2000/svg" xmlns:xlink="http://www.w3.org/1999/xlink" x="0px" y="0px"
	 viewBox="0 0 146.8 129.9" style="enable-background:new 0 0 146.8 129.9;" xml:space="preserve">
<style type="text/css">
	.st0{fill:#0D8DB1;}
</style>
<g>
	<path class="st0" d="M30.9,38c-0.4-12.8,7.6-21.9,16.6-25.6c1.6-0.7,3.4-1.1,5.1-1.2c3.3-0.2,5.8,1.4,7.4,4.3
		c2,3.7,3.2,7.7,4.2,11.7c0.6,2.3,1.1,4.7,1.5,7c0.7,4.1-0.4,6.4-4.1,8.4c-2.8,1.5-5.7,2.6-8.6,3.9c-2.7,1.2-3,1.8-2,4.6
		c3.3,9.2,7.8,17.8,13.4,25.8c4,5.8,8.6,11.1,13.7,15.9c1.8,1.7,2.9,1.6,4.4-0.3c2.3-2.8,4.7-5.6,8.1-7.3c2.6-1.3,5.2-1.4,7.8,0.3
		c5.5,3.5,10.8,7.4,14.9,12.6c1.1,1.4,1.9,3.1,2.4,4.8c0.7,2.4-0.3,4.6-1.8,6.5c-3.9,5.1-9.2,7.9-15.4,9c-6.1,1.1-11.9-0.1-17.4-2.7
		c-10.4-5-19.1-12.2-26.4-20.9c-7.8-9.2-14-19.5-18.3-30.8C33.1,55.6,31.1,47,30.9,38z"/>
</g>
</svg>
