<?xml version="1.0" encoding="utf-8"?>
<!-- Generator: Adobe Illustrator 26.0.1, SVG Export Plug-In . SVG Version: 6.00 Build 0)  -->
<svg version="1.1" id="Layer_1" xmlns="http://www.w3.org/2000/svg" xmlns:xlink="http://www.w3.org/1999/xlink" x="0px" y="0px"
	 viewBox="0 0 146.8 129.9" style="enable-background:new 0 0 146.8 129.9;" xml:space="preserve">
<style type="text/css">
	.st0{fill:#94633C;}
</style>
<g>
	<path class="st0" d="M70.3,8c26.7-0.1,45.3,24.7,38.1,51.3c-1.9,6.9-4.3,13.8-7.9,19.9c-8.1,13.6-17,26.6-25.8,39.8
		c-2.5,3.8-5.6,3.9-8.2,0.4C54,102.9,42,86.1,34.6,66.5c-3.6-9.6-5.4-19.4-2.4-29.6C37.2,19.8,52.5,8.1,70.3,8z M70.2,116.5
		c10.6-12,26-36.6,31-50.7c2-5.6,3.7-11.5,3.9-17.4C106,29.3,90.1,13,71,12.8c-19.3-0.3-35.2,15.2-35.3,34.4c0,3.3,0.3,6.8,1.2,10
		C43,79.7,56.8,97.9,70.2,116.5z"/>
	<path class="st0" d="M70.6,70.8c-12.8,0.1-23.3-10.2-23.3-22.9c-0.1-12.8,10.1-23.2,22.9-23.4c12.5-0.2,23.3,10.3,23.4,23
		C93.8,60,83.3,70.7,70.6,70.8z M70.4,29.4c-9.9,0-18.1,8.1-18.3,18.1c-0.2,10,8.3,18.5,18.4,18.4c10,0,18.1-8.2,18.2-18.1
		C88.7,37.7,80.5,29.4,70.4,29.4z"/>
</g>
</svg>
