<?xml version="1.0" encoding="utf-8"?>
<!-- Generator: Adobe Illustrator 26.0.1, SVG Export Plug-In . SVG Version: 6.00 Build 0)  -->
<svg version="1.1" id="Layer_1" xmlns="http://www.w3.org/2000/svg" xmlns:xlink="http://www.w3.org/1999/xlink" x="0px" y="0px"
	 viewBox="0 0 146.8 129.9" style="enable-background:new 0 0 146.8 129.9;" xml:space="preserve">
<style type="text/css">
	.st0{fill:#94633C;}
</style>
<g>
	<path class="st0" d="M73.2,111.2c-18.1,0-36.1-0.2-54.2,0.1c-8,0.1-12-5.1-12-12.1c0.2-22.5,0-44.9,0.1-67.4c0-2.3,0.5-4.7,1.3-6.9
		c1.5-4,4.8-5.7,9.1-5.7c10.3,0,20.5,0,30.8,0c26.4,0,52.8,0.2,79.2-0.1c7.7-0.1,11.6,5.3,11.6,11.6c0,23.1,0,46.2,0,69.3
		c0,7.2-4,11.2-11.3,11.2C109.6,111.2,91.4,111.2,73.2,111.2z M16.8,25.1c0.7,0.8,1.1,1.2,1.5,1.6C33.6,40.9,49,55.2,64.4,69.4
		c6.1,5.6,11.3,5.7,17.4,0.1c15.4-14.2,30.8-28.5,46.2-42.7c0.4-0.4,0.8-0.9,1.4-1.7C91.8,25.1,54.6,25.1,16.8,25.1z M16.2,105.6
		c38.2,0,75.7,0,113.9,0C116.6,93.1,103.7,81,90.6,68.8c-2.3,2-4.3,3.8-6.4,5.6c-7.2,6.1-15.6,5.9-22.6-0.3c-2-1.8-3.9-3.5-5.9-5.3
		C42.5,81.1,29.6,93.1,16.2,105.6z M133.7,101.8c0-24.6,0-48.6,0-73.3C120.4,41,107.5,53,94.5,65.2
		C107.6,77.4,120.4,89.4,133.7,101.8z M12.6,28.6c0,24.7,0,48.6,0,73.2c13.3-12.4,26.1-24.4,39.2-36.6C38.7,52.9,25.9,41,12.6,28.6z
		"/>
</g>
</svg>
