<?xml version="1.0" encoding="utf-8"?>
<!-- Generator: Adobe Illustrator 26.0.1, SVG Export Plug-In . SVG Version: 6.00 Build 0)  -->
<svg version="1.1" id="Layer_1" xmlns="http://www.w3.org/2000/svg" xmlns:xlink="http://www.w3.org/1999/xlink" x="0px" y="0px"
	 viewBox="0 0 146.8 129.9" style="enable-background:new 0 0 146.8 129.9;" xml:space="preserve">
<style type="text/css">
	.st0{fill:#0D8DB1;}
</style>
<g>
	<path class="st0" d="M29.8,117.3c-0.5-23.9,18.9-43.8,43-44c24.8-0.2,44.2,19.1,44.3,44C87.9,117.3,58.9,117.3,29.8,117.3z"/>
	<path class="st0" d="M76.3,12.6c1.1,0.4,2.1,0.9,3.2,1.2C91.9,17.4,99,28.2,97.2,41.3c-1.5,11.4-11.9,20.2-24,20.2
		c-12.1,0-22.4-8.8-23.8-20.3c-1.7-13,5.4-23.9,17.9-27.4c1.1-0.3,2.1-0.8,3.2-1.2C72.4,12.6,74.4,12.6,76.3,12.6z"/>
</g>
</svg>
