<?xml version="1.0" encoding="utf-8"?>
<!-- Generator: Adobe Illustrator 26.0.1, SVG Export Plug-In . SVG Version: 6.00 Build 0)  -->
<svg version="1.1" id="Layer_1" xmlns="http://www.w3.org/2000/svg" xmlns:xlink="http://www.w3.org/1999/xlink" x="0px" y="0px"
	 viewBox="0 0 146.8 129.9" style="enable-background:new 0 0 146.8 129.9;" xml:space="preserve">
<style type="text/css">
	.st0{fill:#FFFFFF;}
</style>
<g>
	<path class="st0" d="M87.7,89.1c-21.3,14.9-48.2,9-62-9.2c-13.4-17.7-11.7-42.7,4-58.5C45.3,5.7,70.3,4,88.1,17.3
		c18.1,13.5,24.4,40.2,9.7,61.7c4.3,4.3,8.8,8.6,13.1,12.9c5.6,5.6,11.3,11.2,16.9,16.9c3.7,3.7,3.1,8.6-1.2,11.5
		c-2.8,1.9-6.2,1.6-8.8-0.9c-7.1-7.1-14.2-14.1-21.3-21.2C93.5,95.2,90.6,92.2,87.7,89.1z M93,53c0-17.4-14.2-31.7-31.5-31.7
		c-17.7,0-32,14.1-32,31.6c0,17.5,14.3,31.9,31.9,31.9C78.8,84.7,93,70.5,93,53z"/>
</g>
</svg>
